<svg xmlns="http://www.w3.org/2000/svg" xmlns:xlink="http://www.w3.org/1999/xlink" width="135" height="279"><style><![CDATA[.B{fill:#fff}.C{fill:#ECC417}.D{fill-rule:nonzero}]]></style><defs><path d="M18 0H2C.9 0 0 .9 0 2v18l4-4h14c1.1 0 2-.9 2-2V2c0-1.1-.9-2-2-2zm-2 12H4v-2h12v2zm0-3H4V7h12v2zm0-3H4V4h12v2z" id="A"/><path d="M36 0H4C1.8 0 0 1.8 0 4v36l8-8h28c2.2 0 4-1.8 4-4V4c0-2.2-1.8-4-4-4zm-4 24H8v-4h24v4zm0-6H8v-4h24v4zm0-6H8V8h24v4z" id="B"/><path d="M11.2 0C5.008 0 0 5.008 0 11.2 0 19.6 11.2 32 11.2 32s11.2-12.4 11.2-20.8C22.4 5.008 17.392 0 11.2 0zm0 15.2c-2.208 0-4-1.792-4-4s1.792-4 4-4 4 1.792 4 4-1.792 4-4 4z" id="C"/><path d="M28.8 0H3.2C1.44 0 0 1.463 0 3.25v19.5C0 24.538 1.44 26 3.2 26h25.6c1.76 0 3.2-1.462 3.2-3.25V3.25C32 1.463 30.56 0 28.8 0zm0 6.5L16 14.625 3.2 6.5V3.25L16 11.375 28.8 3.25V6.5z" id="D"/><path id="E" d="M62.718 206.27a2.05 2.05 0 0 1-.628-2.823l4.01-6.307a2.05 2.05 0 0 1 2.823-.628 2.05 2.05 0 0 1 .628 2.823l-4.01 6.307a2.05 2.05 0 0 1-2.823.628z"/></defs><g fill="none"><g transform="translate(96 63)"><mask id="F" class="B"><use xlink:href="#A"/></mask><path d="M0 0h20v20H0z" mask="url(#F)" class="C"/></g><g transform="translate(95)" opacity=".3"><mask id="G" class="B"><use xlink:href="#B"/></mask><path d="M0 0h40v40H0z" mask="url(#G)" class="C"/></g><g class="D"><path d="M59.464 13.412v-.4c0-.347.074-.65.222-.906s.42-.53.813-.82c.38-.27.63-.492.75-.662a.96.96 0 0 0 .182-.569c0-.235-.087-.414-.26-.537s-.416-.184-.727-.184c-.542 0-1.16.177-1.855.53L58 8.678C58.806 8.226 59.66 8 60.565 8c.745 0 1.337.18 1.776.537s.66.835.66 1.432c0 .398-.1.74-.27 1.03s-.524.615-1.03.976c-.347.257-.567.452-.66.586s-.138.31-.138.526v.325h-1.437zm-.174 1.855c0-.304.08-.533.244-.69s.4-.233.7-.233c.3 0 .532.08.697.24s.247.387.247.683c0 .286-.083.51-.25.675s-.398.247-.694.247c-.304 0-.54-.08-.705-.24s-.25-.388-.25-.68z" class="B"/><g class="C"><path d="M87.597 223.266l-.505-.032c-.02-.01-.02-.015-.022-.023-.146-1.196-.794-1.778-1.982-1.778-3.7-.001-7.38-.001-11.07 0-1.157 0-1.798.558-1.96 1.705a.52.52 0 0 1-.02.094.59.59 0 0 1-.08.012 4.6 4.6 0 0 1-.473.022 10.13 10.13 0 0 1-.122-.001h-.035a1.94 1.94 0 0 0-1.474.676c-.616.687-.76 1.582-.407 2.52.322.854 1.08 1.343 2.084 1.343l16.043-.002c1.296-.01 2.2-.948 2.2-2.283-.001-1.298-.895-2.224-2.175-2.252zM76.7 203.932l-.003-.002.348-.556.118-.2c.3-.486.226-.838-.25-1.142l-2.445-1.553-2.443-1.557c-.477-.303-.827-.22-1.14.257l-.122.187-.356.55-.003-.002-4.3 6.782c-.262.426-.188.805.23 1.082.148.098.18.202.2.373.023.374.102.744.14 1.117.01.115-.004.26-.068.35l-.77.98-1.4 1.87c-1.858 2.58-3.552 5.265-5.15 8.013l-.004.006-1.62 3.037-.292.602c-.163.338-.136.64.126.93a4.16 4.16 0 0 0 .878.736c.318.205.663.368 1.04.483a.76.76 0 0 0 .895-.28l.422-.52.002-.003 2.066-2.756 5.074-8.062 1.103-2.052.564-1.112c.053-.095.18-.17.288-.2l1.07-.348c.16-.062.267-.077.42.015.428.262.803.168 1.077-.25l.252-.393.25-.395 3.813-5.992z"/><use xlink:href="#E"/><use xlink:href="#E" x="11.492" y="7.31"/></g></g><g transform="translate(52 145)"><mask id="H" class="B"><use xlink:href="#C"/></mask><path mask="url(#H)" d="M-8-3.2h38.4v38.4H-8z" class="C"/></g><g class="C"><path d="M82.242 254.278v-4.36c0-1.606-1.3-2.907-2.907-2.907h-11.63c-1.606 0-2.907 1.3-2.907 2.907v4.36h-5.815c-1.606 0-2.907 1.3-2.907 2.908v18.897c0 1.606 1.3 2.907 2.907 2.907h29.074c1.606 0 2.907-1.3 2.907-2.907v-18.897c0-1.606-1.3-2.908-2.907-2.908h-5.815zm-12.21-3.634h6.977c.887 0 1.6.712 1.6 1.6v2.035H68.432v-2.035c0-.887.712-1.6 1.6-1.6zm-5.233 8.722v14.537a1.46 1.46 0 0 1-1.454 1.454 1.46 1.46 0 0 1-1.454-1.454v-14.537a1.46 1.46 0 0 1 1.454-1.454 1.46 1.46 0 0 1 1.454 1.454zm20.35 0v14.537a1.46 1.46 0 0 1-1.453 1.454 1.46 1.46 0 0 1-1.454-1.454v-14.537a1.46 1.46 0 0 1 1.454-1.454 1.46 1.46 0 0 1 1.453 1.454z"/><path d="M54.5 40.5h4.454c.224.86 1.003 1.5 1.935 1.5s1.7-.64 1.935-1.5H69.5a.5.5 0 0 0 .5-.5.5.5 0 0 0-.5-.499h-6.676C62.6 38.64 61.82 38 60.9 38s-1.7.64-1.935 1.5H54.5a.5.5 0 0 0-.5.5.5.5 0 0 0 .5.499zm6.4-1.5c.555 0 1.006.45 1.006 1.003s-.45 1.003-1.006 1.003-1.006-.45-1.006-1.003A1 1 0 0 1 60.9 39zm8.6 5.5h-1.07c-.224-.86-1.003-1.5-1.935-1.5s-1.7.64-1.935 1.5H54.5a.5.5 0 0 0-.5.5.5.5 0 0 0 .5.499h10.06c.224.86 1.003 1.5 1.935 1.5s1.7-.64 1.935-1.5h1.07A.5.5 0 0 0 70 45a.5.5 0 0 0-.5-.499zM66.494 46c-.555 0-1.006-.45-1.006-1.003s.45-1.003 1.006-1.003A1.01 1.01 0 0 1 67.5 45c0 .553-.45 1.003-1.006 1.003zm3.006 3.5h-9.688c-.224-.86-1.003-1.5-1.934-1.5s-1.7.64-1.935 1.5H54.5a.5.5 0 0 0-.5.5.5.5 0 0 0 .5.499h1.443c.224.86 1.003 1.5 1.935 1.5s1.7-.64 1.934-1.5H69.5A.5.5 0 0 0 70 50a.5.5 0 0 0-.5-.499zM57.878 51c-.555 0-1.006-.45-1.006-1.003s.45-1.003 1.006-1.003 1.005.45 1.005 1.003S58.433 51 57.878 51z" class="D"/><path d="M55 72h4v4h-4zm6 0h4v4h-4zm6 0h4v4h-4zm-12 6h4v4h-4zm6 0h4v4h-4zm6 0h4v4h-4zm-12 6h4v4h-4zm6 0h4v4h-4zm6 0h4v4h-4z"/></g><path d="M56 108h16v4H56z" fill="#3B4555"/><path d="M56 108h12v4H56z" class="C"/><path d="M56 114h16v4H56z" fill="#3B4555"/><path d="M56 114h10v4H56zm0 6h16v4H56z" class="C"/><g class="B D"><path d="M0 24h6v8H0zm8-8h6v16H8zm8-8h6v24h-6zm8-8h6v32h-6zm-1.593 90.4l.93 3.7-16.997 9.8 1.203-4.92 14.864-8.58zm-1.27-5.04l-11.95 6.9 2.38-9.733A2 2 0 0 1 13.509 81h4.97a2 2 0 0 1 1.939 1.511l.72 2.85zm4.438 17.592L8.17 113H4.117l.724-2.962.218.377 19.55-11.288.965 3.824zm1.27 5.04L28.1 113h-9.94l8.675-5z"/><rect y="108" width="32" height="5" rx="2.5"/><path d="M4 165h28v4H4v28H0v-32zm24 32H9v-4h19v-18h4v22zm-10-9h2v2h-8v-2h2v-8h-2v-2h6v1z"/><circle cx="15.5" cy="174.5" r="2.5"/></g><g transform="translate(0 253)" class="B"><mask id="I"><use xlink:href="#D"/></mask><path mask="url(#I)" d="M0 0h32v26H0z" class="D"/></g></g></svg>