<svg xmlns="http://www.w3.org/2000/svg" xmlns:xlink="http://www.w3.org/1999/xlink" width="710" height="197"><style><![CDATA[.B{mask:url(#Y)}.C{stroke:#0E1724}.D{stroke-width:2.4}.E{fill:#fff}.F{stroke-linejoin:round}.G{fill:#F07E30}.H{fill:#E7E5E6}.I{fill:#FCA91A}.J{stroke-linecap:round}]]></style><defs><path id="A" d="M0 196h709.42V.358H0z"/><path id="B" d="M226.92 143.47c.038.217-.11.394-.33.394H200.17c-.22 0-.37-.177-.33-.394l9.128-51.87c.038-.216.25-.394.47-.394h7.886c.22 0 .43.178.47.394l1.803 10.213 7.325 41.658z"/><path id="C" d="M230.592 144.452c.102.194.006.354-.214.354h-34c-.22 0-.316-.16-.214-.354l1.646-3.135a.73.73 0 0 1 .586-.354h29.954a.73.73 0 0 1 .586.354l1.646 3.135z"/><path id="D" d="M224.418 130.437h-22.076l1.63-9.57h18.814z"/><path id="E" d="M221.156 111.3h-15.553l1.63-9.568h12.292z"/><path id="F" d="M280.528 146.406h6.435V42.154h-6.435z"/><path id="G" d="M447.91 52.45l-16.19 25.74H270.075V52.45z"/><path id="H" d="M310.342 52.45l-16.2 25.74h-22.807l16.19-25.74z"/><path id="I" d="M356.194 52.45L340 78.192h-22.807l16.19-25.74z"/><path id="J" d="M402.052 52.45l-16.19 25.74h-22.8l16.19-25.74z"/><path id="K" d="M447.91 84.628l-16.19 25.74H270.075v-25.74z"/><path id="L" d="M356.194 84.628L340 110.368h-22.807l16.19-25.74z"/><path id="M" d="M423.523 145.07c.038.217-.112.394-.33.394h-26.245c-.22 0-.37-.177-.33-.394l.763-4.382 1.792-10.212 6.514-37.277c.038-.216.25-.394.47-.394h7.83c.22 0 .43.178.47.394l1.79 10.213 7.278 41.658z"/><path id="N" d="M427.17 146.05c.102.195.005.354-.215.354h-33.768c-.22 0-.317-.16-.215-.354l1.635-3.134a.73.73 0 0 1 .585-.354h29.758c.22 0 .483.16.585.354l1.635 3.134z"/><path id="O" d="M421.036 132.037h-21.934l1.62-9.57h18.695z"/><path id="P" d="M417.796 112.9h-15.454l1.62-9.568h12.214z"/><path id="Q" d="M123.258 191.163c-.218.03-.39-.128-.38-.348l1.115-26.22c.01-.22.193-.36.408-.314l4.346.95 47.094 10.316c.214.047.382.266.373.486l-.333 7.823c-.01.22-.195.424-.413.452l-10.28 1.356-41.93 5.5z"/><path id="R" d="M122.124 194.766c-.2.093-.354-.01-.346-.23l1.434-33.738c.01-.22.174-.3.364-.2l3.062 1.766a.73.73 0 0 1 .329.6l-1.264 29.73a.73.73 0 0 1-.38.57l-3.2 1.5z"/><path id="S" d="M136.385 189.233l.932-21.916 9.49 2.026-.794 18.677z"/><path id="T" d="M155.643 186.808l.656-15.44 9.492 2.026-.52 12.202z"/><path id="U" d="M148.377 1.557h-21.604l-15.276 15.277v21.603l15.276 15.275h21.604l15.276-15.275V16.834z"/><path id="V" d="M145.695 8.032h-16.24l-11.482 11.483v16.24l11.482 11.483h16.24l11.483-11.483v-16.24z"/><path id="W" d="M529.142 60.284l1.126-.004.145 46.7-1.125.003z"/><path id="X" d="M525.182 137.884a6.09 6.09 0 0 0 8.851-.086l5.185-5.523c2.4-2.566 4.312-7.544 4.226-11.064l-.266-11.01c-.085-3.52-3.035-6.37-6.554-6.336l-14.7.142c-3.52.035-6.414 2.943-6.43 6.462l-.05 11.016c-.018 3.52 1.982 8.46 4.44 10.98l5.29 5.42z"/></defs><g transform="translate(-395 -491)" fill="none"><path d="M0 0h1440v1024H0z" fill="#0E1724"/><g transform="translate(365 491)"><g transform="translate(0 .442)"><use xlink:href="#B" class="G"/><use xlink:href="#B" class="C D"/><use xlink:href="#C" class="G"/><use xlink:href="#C" class="C D"/><use xlink:href="#D" class="E"/><use xlink:href="#D" class="C D"/><use xlink:href="#E" class="E"/><use xlink:href="#E" class="C D"/><mask id="Y" class="E"><use xlink:href="#A"/></mask><use xlink:href="#F" class="B H"/><use xlink:href="#F" class="B C D F"/><use xlink:href="#F" x="156.806" class="B H"/><use xlink:href="#F" x="156.806" class="B C D F"/><path d="M289.216 35.397c0 3.2-2.593 5.792-5.79 5.792s-5.792-2.593-5.792-5.792 2.593-5.79 5.792-5.79 5.79 2.593 5.79 5.79" fill="#ff0" class="B"/><path d="M289.216 35.397c0 3.2-2.593 5.792-5.79 5.792s-5.792-2.593-5.792-5.792 2.593-5.79 5.792-5.79 5.79 2.593 5.79 5.79z" class="B C D F"/><path d="M446.343 36.04c0 3.198-2.593 5.792-5.79 5.792s-5.792-2.594-5.792-5.792 2.594-5.79 5.792-5.79 5.79 2.593 5.79 5.79" fill="#ff0" class="B"/><path d="M446.343 36.04c0 3.198-2.593 5.792-5.79 5.792s-5.792-2.594-5.792-5.792 2.594-5.79 5.792-5.79 5.79 2.593 5.79 5.79z" class="B C D F"/><path d="M430.147 78.192h23.81V52.45h-23.81z" class="B I"/><path d="M430.147 78.192h23.81V52.45h-23.81z" class="B C D"/><use xlink:href="#G" class="B I"/><use xlink:href="#G" class="B C D"/><use xlink:href="#H" class="B E"/><use xlink:href="#H" class="B C D"/><use xlink:href="#I" class="B E"/><use xlink:href="#I" class="B C D"/><use xlink:href="#J" class="B E"/><use xlink:href="#J" class="B C D"/><use xlink:href="#J" x="45.858" class="B E"/><use xlink:href="#J" x="45.858" class="B C D"/><path d="M430.147 110.368h23.81v-25.74h-23.81z" class="B I"/><path d="M430.147 110.368h23.81v-25.74h-23.81z" class="B C D"/><use xlink:href="#K" class="B I"/><use xlink:href="#K" class="B C D"/><use xlink:href="#H" y="32.178" class="B E"/><use xlink:href="#H" y="32.178" class="B C D"/><use xlink:href="#L" class="B E"/><use xlink:href="#L" class="B C D"/><use xlink:href="#J" y="32.178" class="B E"/><use xlink:href="#J" y="32.178" class="B C D"/><use xlink:href="#J" x="45.858" y="32.178" class="B E"/><g class="C D B"><use xlink:href="#J" x="45.858" y="32.178"/><path d="M275.702 146.406h15.445m141.683 0h15.445" class="F J"/></g><use xlink:href="#M" class="B G"/><use xlink:href="#M" class="B C D"/><use xlink:href="#N" class="B G"/><use xlink:href="#N" class="B C D"/><use xlink:href="#O" class="B E"/><use xlink:href="#O" class="B C D"/><use xlink:href="#P" class="B E"/><use xlink:href="#P" class="B C D"/><use xlink:href="#Q" class="B G"/><use xlink:href="#Q" class="B C D"/><use xlink:href="#R" class="B G"/><use xlink:href="#R" class="B C D"/><use xlink:href="#S" class="B E"/><use xlink:href="#S" class="B C D"/><use xlink:href="#T" class="B E"/><use xlink:href="#T" class="B C D"/><path d="M134.602 146.406h6.4v-129.6h-6.4z" class="B H"/><path d="M134.602 146.406h6.4v-129.6h-6.4z" class="B C D F"/><path d="M677.977 147.606h-31.48c.378-3.078 2.305-5.678 4.98-7 .883-4.04 4.484-7.06 8.786-7.06 3.974 0 7.35 2.577 8.537 6.156.08-.01.162-.01.246-.01a9 9 0 0 1 8.931 7.904" class="B H"/><path d="M677.977 147.606h-31.48c.378-3.078 2.305-5.678 4.98-7 .883-4.04 4.484-7.06 8.786-7.06 3.974 0 7.35 2.577 8.537 6.156.08-.01.162-.01.246-.01a9 9 0 0 1 8.931 7.904z" class="B C D"/><path d="M617.977 172.395h31.2c-.374-2.756-2.285-5.083-4.935-6.26-.875-3.618-4.444-6.323-8.71-6.323-3.938 0-7.285 2.308-8.46 5.513-.08-.008-.16-.008-.244-.008-4.557 0-8.32 3.09-8.852 7.078" fill="#D7CCC8" class="B"/><g class="D F B"><path d="M617.977 172.395h31.2c-.374-2.756-2.285-5.083-4.935-6.26-.875-3.618-4.444-6.323-8.71-6.323-3.938 0-7.285 2.308-8.46 5.513-.08-.008-.16-.008-.244-.008-4.557 0-8.32 3.09-8.852 7.078z" stroke="#E7E5E6"/><path d="M130.102 146.406h15.445" class="C J"/></g><use xlink:href="#U" class="B E"/><use xlink:href="#U" class="B C D F"/><use xlink:href="#V" class="B G"/><use xlink:href="#V" class="B C D F"/></g><path d="M123.53 22.842c0-2.188 1.045-3.407 3.136-3.407s3.136 1.22 3.136 3.407v.426h-2.013v-.56c0-.987-.387-1.336-1.065-1.336s-1.065.348-1.065 1.336c0 .93.465 1.607 1.084 2.226.3.33.64.64 1.007.95.697.64 1.355 1.375 1.762 2.323.213.484.3 1.045.3 1.684 0 2.188-1.084 3.407-3.175 3.407s-3.175-1.22-3.175-3.407v-.832h2.013v.968c0 .987.426 1.316 1.103 1.316s1.103-.33 1.103-1.316c0-.93-.465-1.607-1.084-2.246l-.987-.95c-.716-.62-1.375-1.355-1.78-2.304-.213-.484-.3-1.045-.3-1.684zm6.892-1.316V19.59h6.582v1.936h-2.226V33.14h-2.13V21.525h-2.226zm7.337 8.363v-7.047c0-2.188 1.142-3.407 3.233-3.407s3.233 1.22 3.233 3.407v7.047c0 2.188-1.142 3.407-3.233 3.407s-3.233-1.22-3.233-3.407zm2.13-7.182v7.318c0 .987.426 1.336 1.103 1.336s1.103-.348 1.103-1.336v-7.318c0-.987-.426-1.336-1.103-1.336s-1.103.348-1.103 1.336zm5.71-3.117h3.136c2.15 0 3.175 1.162 3.175 3.35V24.7c0 2.188-1.026 3.35-3.175 3.35h-1.007v5.092h-2.13V19.59zm3.136 1.936h-1.007v4.588h1.007c.678 0 1.045-.3 1.045-1.278v-2.033c0-.987-.368-1.278-1.045-1.278z" class="E"/><path d="M641.156 148.048h-139.47c-.757-2.095-1.17-4.36-1.17-6.715 0-10.897 8.83-19.727 19.722-19.727a19.68 19.68 0 0 1 8.449 1.894c2.115-7.673 9.154-13.3 17.506-13.3 6.156 0 11.6 3.06 14.88 7.746 3.328-9.35 12.254-16.05 22.75-16.05 13.2 0 23.926 10.598 24.13 23.748a18.21 18.21 0 0 1 11.22 10.651 13.73 13.73 0 0 1 5.442-2.453c7.438-1.555 14.717 3.223 16.272 10.656a13.55 13.55 0 0 1 .27 3.56" class="H"/><path d="M641.156 148.048h-139.47c-.757-2.095-1.17-4.36-1.17-6.715 0-10.897 8.83-19.727 19.722-19.727a19.68 19.68 0 0 1 8.449 1.894c2.115-7.673 9.154-13.3 17.506-13.3 6.156 0 11.6 3.06 14.88 7.746 3.328-9.35 12.254-16.05 22.75-16.05 13.2 0 23.926 10.598 24.13 23.748a18.21 18.21 0 0 1 11.22 10.651 13.73 13.73 0 0 1 5.442-2.453c7.438-1.555 14.717 3.223 16.272 10.656a13.55 13.55 0 0 1 .27 3.56z" class="C D"/><use xlink:href="#W" fill="#736357"/><use xlink:href="#W" stroke="#C69C6D" stroke-width="1.6" class="F"/><use xlink:href="#X" fill="#B0BFC6"/><g class="D"><use xlink:href="#X" class="C"/><path d="M529.582 60.72a8.44 8.44 0 0 0 8.357-8.521l-16.878.165a8.44 8.44 0 0 0 8.522 8.357z" stroke="#C69C6D" class="F"/></g><path d="M529.546 106.177c1.468-.005 2.665-1.208 2.66-2.677l-.022-7.098-5.337-.12.022 7.234c.005 1.468 1.2 2.665 2.677 2.66" fill="#8C6239"/><path d="M529.546 106.177c1.468-.005 2.665-1.208 2.66-2.677l-.022-7.098-5.337-.12.022 7.234c.005 1.468 1.2 2.665 2.677 2.66z" class="C D F"/><path d="M515.977 133.647s13.6-7.2 32-4.8v12.8l-32 1.6v-9.6z" class="H"/><path d="M516.377 132.848s12.24-7.2 28.8-4.8" fill="#D7CCC8"/><g class="F J"><path d="M516.377 132.848s12.24-7.2 28.8-4.8" stroke-width="1.6" class="C"/><path d="M31.2 147.248h707.02" stroke="#E7E5E6" class="D"/></g></g></g></svg>