<svg xmlns="http://www.w3.org/2000/svg" xmlns:xlink="http://www.w3.org/1999/xlink" width="116" height="103"><style><![CDATA[.L{stroke-linejoin:round}.M{stroke-width:1.255}.N{stroke-linecap:round}.O{fill:#0E1724}]]></style><g fill="none"><path d="M-437-241h1440V783H-437z" class="O"/><use xlink:href="#A" fill="#4D4D4D"/><use xlink:href="#A" stroke="#fff" class="L M"/><path d="M84.565 83.847H37.13l3.194-42.42h54.52L92.45 76.75c-.456 4.043-3.85 7.097-7.886 7.097" fill="#ECC417"/><path d="M84.565 83.847H37.13l3.194-42.42h54.52L92.45 76.75c-.456 4.043-3.85 7.097-7.886 7.097z" stroke="#fff" class="L M"/><path d="M60.556 62.436a2 2 0 0 1-1.985 2 2 2 0 1 1 0-4 2 2 0 0 1 1.985 2m16.674 0a2 2 0 0 1-1.985 2 2 2 0 1 1 0-4 2 2 0 0 1 1.985 2M73.412 55.4l4.462 1.248" class="O"/><path d="M73.412 55.41l4.462 1.248" stroke="#0E1724" class="L M N"/><path d="M60.405 55.41l-4.462 1.248" class="O"/><path d="M60.405 55.4l-4.462 1.248m8.583 10.982h4.765" stroke="#0E1724" class="L M N"/><g fill="#FECA57"><path d="M81.685 99.528c0 1.806-9.637 3.27-21.526 3.27s-21.526-1.463-21.526-3.27 9.638-3.27 21.526-3.27 21.526 1.463 21.526 3.27" opacity=".204"/><path d="M23.633 12.813l3.175 3.2"/></g><g class="M"><g class="L N"><path d="M23.633 12.813l3.175 3.2" stroke="#FECA57"/><path d="M18.074 60.836l1.587 1.6" stroke="#ECC417"/></g><g stroke="#ECC417"><use xlink:href="#B"/><path d="M114.95 51.63c0 .663-.533 1.2-1.2 1.2s-1.2-.538-1.2-1.2.533-1.2 1.2-1.2 1.2.538 1.2 1.2zM4.97 44.827c0 1.105-.9 2-1.985 2S1 45.933 1 44.827s.9-2 1.985-2 1.985.896 1.985 2z"/><use xlink:href="#B" x="-50.226" y="-44.222"/><path d="M26.808 12.813l-3.175 3.2" class="L N"/></g></g><path d="M19.66 60.836l-1.587 1.6" fill="#FECA57"/><path d="M19.66 60.836l-1.587 1.6" stroke="#FECA57" class="L M N"/><path d="M111.408 13.377c0 6.5-5.046 11.822-11.4 12.197-.908 2.103-4.95 2.296-4.95 2.296 1.032-.347 1.855-1.54 2.34-2.42-5.797-.916-10.234-5.974-10.234-12.072 0-6.747 5.43-12.22 12.123-12.22s12.123 5.473 12.123 12.22" fill="#4D4D4D"/><path d="M111.408 13.377c0 6.5-5.046 11.822-11.4 12.197-.908 2.103-4.95 2.296-4.95 2.296 1.032-.347 1.855-1.54 2.34-2.42-5.797-.916-10.234-5.974-10.234-12.072 0-6.747 5.43-12.22 12.123-12.22s12.123 5.473 12.123 12.22z" stroke="#fff" stroke-width=".941" class="L"/><path d="M97.83 16.947c-.076-.23-.114-.48-.114-.828 0-1.08.267-1.868 1.1-3.042.935-1.348 1.203-2.233 1.203-3.523 0-.962-.382-1.328-1.05-1.328s-1.05.366-1.05 1.328v1.464h-1.99v-1.33c0-2.156 1.05-3.388 3.094-3.388s3.094 1.232 3.094 3.388c0 1.444-.38 2.484-1.413 3.87-.82 1.117-1.07 1.772-1.07 2.638 0 .25.02.5.077.75H97.83zm2.02 2.113c0 .628-.505 1.137-1.128 1.137s-1.128-.5-1.128-1.137.505-1.136 1.128-1.136 1.128.5 1.128 1.136" fill="#ECC417"/></g><defs><path id="A" d="M80.795 36.01v7.008l-32.945.61-6.386 36.383-.118.365-.2.5c-.63 1.373-1.75 2.485-3.148 3.123-.834.384-1.767.597-2.75.597s-1.916-.213-2.75-.597c-1.788-.816-3.13-2.412-3.558-4.335l-.078-.435c-.047-.294-.07-.595-.07-.9l-3.97-45.507h16.524l.77 3.188h38.678z"/><path id="B" d="M108.4 62.236c0 1.326-1.067 2.4-2.382 2.4s-2.382-1.075-2.382-2.4 1.067-2.4 2.382-2.4 2.382 1.075 2.382 2.4z"/></defs></svg>