<svg xmlns="http://www.w3.org/2000/svg" width="32" height="33"><path d="M5.544 18l10.305-5.95.627 2.607-5.8 3.343H18.5a1.5 1.5 0 0 1 0 3h-17a1.5 1.5 0 0 1 0-3h4.044zm9.038-11.22l.505 2.1-10.704 6.18.643-2.762 9.556-5.518zm-.76-3.168L5.997 8.13 7.53 1.546A2 2 0 0 1 9.478 0h1.898a2 2 0 0 1 1.945 1.533l.5 2.08zM20.5 6h10a1.5 1.5 0 0 1 0 3h-10a1.5 1.5 0 0 1 0-3zm-3-6h13a1.5 1.5 0 0 1 0 3h-13a1.5 1.5 0 0 1 0-3zm5 12h8a1.5 1.5 0 0 1 0 3h-8a1.5 1.5 0 0 1 0-3zm3 6h5a1.5 1.5 0 0 1 0 3h-5a1.5 1.5 0 0 1 0-3zM2.7 32H.97v-6.6H2.7V32zm15.5 0h-1.52v-3.03l.05-2.03h-.02L15.07 32h-1.4l-1.63-5.06h-.02l.05 2.03V32h-1.53v-6.6H13l1.04 3.36.37 1.4h.02l.38-1.4 1.03-3.37h2.35V32zm10.44-6.7c.627 0 1.162.093 1.605.28s.855.5 1.235.9l-.97 1.12c-.22-.333-.478-.578-.775-.735s-.652-.235-1.065-.235c-.347 0-.613.06-.8.18s-.28.28-.28.48c0 .167.098.302.295.405s.532.198 1.005.285c.913.167 1.565.4 1.955.73s.585.77.585 1.35c0 .42-.12.783-.36 1.1s-.572.54-.995.7-.902.24-1.435.24c-.747 0-1.353-.092-1.82-.275a3.15 3.15 0 0 1-1.21-.845l.88-1.2c.26.36.553.613.88.76s.72.22 1.18.22c.367 0 .642-.052.825-.155s.275-.252.275-.445c0-.153-.098-.278-.295-.375s-.525-.188-.985-.275c-.567-.113-1.035-.248-1.405-.405s-.657-.368-.86-.635-.305-.607-.305-1.02.112-.783.335-1.1.55-.582.98-.765.938-.275 1.525-.275z" fill="#ECC417" fill-rule="evenodd"/></svg>